<svg width="646" height="379" viewBox="0 0 646 379" fill="none" xmlns="http://www.w3.org/2000/svg">
<rect x="145.5" y="149.5" width="355" height="81" rx="9.5" fill="white"/>
<rect x="145.5" y="149.5" width="355" height="81" rx="9.5" stroke="#9CA0B0"/>
<rect x="161.5" y="165.5" width="81" height="49" rx="5.5" fill="#E7E9EF"/>
<rect x="161.5" y="165.5" width="81" height="49" rx="5.5" stroke="#DCE0E8"/>
<path d="M188.424 200.88L175.784 193.008V189.232L188.424 181.36L190.408 184.112L178.888 191.12L190.408 198.128L188.424 200.88ZM215.151 200.88L213.167 198.128L224.687 191.12L213.167 184.112L215.151 181.36L227.791 189.232V193.008L215.151 200.88Z" fill="#8839EF"/>
<path d="M201.052 208.88H193.5V205.648H194.972V188.592H193.5V185.36H198.78V188.112C198.972 187.664 199.228 187.248 199.548 186.864C199.868 186.459 200.23 186.128 200.635 185.872C201.041 185.595 201.489 185.403 201.98 185.296C202.47 185.168 202.961 185.104 203.452 185.104C204.006 185.104 204.55 185.179 205.084 185.328C205.638 185.477 206.129 185.723 206.556 186.064C207.004 186.405 207.377 186.821 207.676 187.312C207.974 187.781 208.209 188.283 208.38 188.816C208.572 189.328 208.7 189.861 208.764 190.416C208.828 190.971 208.86 191.525 208.86 192.08V195.28C208.86 195.835 208.828 196.389 208.764 196.944C208.7 197.499 208.572 198.043 208.38 198.576C208.209 199.088 207.974 199.589 207.676 200.08C207.377 200.549 207.004 200.955 206.556 201.296C206.129 201.637 205.638 201.883 205.084 202.032C204.55 202.181 204.006 202.256 203.452 202.256C202.961 202.256 202.47 202.192 201.98 202.064C201.489 201.957 201.041 201.776 200.635 201.52C200.23 201.243 199.868 200.912 199.548 200.528C199.228 200.123 198.972 199.696 198.78 199.248V205.648H201.052V208.88ZM201.916 199.024C202.385 199.024 202.833 198.939 203.26 198.768C203.708 198.576 204.07 198.299 204.348 197.936C204.625 197.552 204.806 197.136 204.892 196.688C204.998 196.219 205.052 195.749 205.052 195.28V192.08C205.052 191.611 204.998 191.152 204.892 190.704C204.806 190.235 204.625 189.819 204.348 189.456C204.07 189.072 203.708 188.795 203.26 188.624C202.833 188.432 202.385 188.336 201.916 188.336C201.446 188.336 200.988 188.432 200.54 188.624C200.113 188.795 199.761 189.072 199.484 189.456C199.206 189.819 199.014 190.235 198.908 190.704C198.822 191.152 198.78 191.611 198.78 192.08V195.28C198.78 195.749 198.822 196.219 198.908 196.688C199.014 197.136 199.206 197.552 199.484 197.936C199.761 198.299 200.113 198.576 200.54 198.768C200.988 198.939 201.446 199.024 201.916 199.024Z" fill="#E64554"/>
<rect x="247.5" y="165.5" width="132" height="49" rx="5.5" fill="#E7E9EF"/>
<rect x="247.5" y="165.5" width="132" height="49" rx="5.5" stroke="#DCE0E8"/>
<path d="M269.56 202.256C269.091 202.256 268.621 202.213 268.152 202.128C267.683 202.064 267.235 201.936 266.808 201.744C266.381 201.552 265.987 201.307 265.624 201.008C265.261 200.709 264.941 200.368 264.664 199.984V202H262.04V196.24H264.664C264.664 196.752 264.76 197.264 264.952 197.776C265.144 198.267 265.432 198.683 265.816 199.024C266.221 199.344 266.68 199.568 267.192 199.696C267.704 199.824 268.216 199.888 268.728 199.888C269.24 199.888 269.741 199.824 270.232 199.696C270.744 199.568 271.192 199.333 271.576 198.992C271.981 198.651 272.28 198.245 272.472 197.776C272.685 197.285 272.792 196.784 272.792 196.272C272.792 195.696 272.653 195.141 272.376 194.608C272.12 194.075 271.779 193.616 271.352 193.232C270.925 192.848 270.445 192.528 269.912 192.272C269.4 192.016 268.877 191.781 268.344 191.568C267.832 191.333 267.309 191.088 266.776 190.832C266.264 190.576 265.773 190.277 265.304 189.936C264.835 189.595 264.397 189.221 263.992 188.816C263.587 188.411 263.235 187.963 262.936 187.472C262.637 186.96 262.403 186.427 262.232 185.872C262.083 185.317 262.008 184.752 262.008 184.176C262.008 183.643 262.061 183.131 262.168 182.64C262.296 182.128 262.467 181.637 262.68 181.168C262.915 180.699 263.203 180.272 263.544 179.888C263.907 179.483 264.312 179.163 264.76 178.928C265.208 178.672 265.688 178.491 266.2 178.384C266.733 178.277 267.256 178.224 267.768 178.224C268.216 178.224 268.664 178.267 269.112 178.352C269.581 178.416 270.019 178.544 270.424 178.736C270.851 178.907 271.245 179.141 271.608 179.44C271.971 179.739 272.28 180.08 272.536 180.464V178.48H275.16V184.24H272.536C272.536 183.728 272.451 183.227 272.28 182.736C272.109 182.245 271.832 181.829 271.448 181.488C271.064 181.147 270.616 180.912 270.104 180.784C269.613 180.656 269.112 180.592 268.6 180.592C268.088 180.592 267.587 180.667 267.096 180.816C266.605 180.944 266.168 181.179 265.784 181.52C265.421 181.84 265.144 182.245 264.952 182.736C264.76 183.205 264.664 183.696 264.664 184.208C264.664 184.784 264.792 185.339 265.048 185.872C265.325 186.405 265.677 186.864 266.104 187.248C266.531 187.632 267 187.952 267.512 188.208C268.045 188.464 268.568 188.709 269.08 188.944C269.613 189.157 270.136 189.392 270.648 189.648C271.181 189.904 271.683 190.203 272.152 190.544C272.621 190.864 273.059 191.237 273.464 191.664C273.869 192.069 274.221 192.528 274.52 193.04C274.819 193.531 275.043 194.053 275.192 194.608C275.363 195.163 275.448 195.728 275.448 196.304C275.448 196.837 275.384 197.36 275.256 197.872C275.149 198.384 274.979 198.875 274.744 199.344C274.509 199.813 274.211 200.24 273.848 200.624C273.485 201.008 273.069 201.328 272.6 201.584C272.131 201.84 271.64 202.011 271.128 202.096C270.616 202.203 270.093 202.256 269.56 202.256ZM286.635 202.256C286.166 202.256 285.697 202.224 285.228 202.16C284.758 202.096 284.3 201.979 283.852 201.808C283.425 201.637 283.02 201.413 282.636 201.136C282.273 200.859 281.953 200.528 281.676 200.144C281.42 199.739 281.238 199.312 281.132 198.864C281.025 198.395 280.972 197.925 280.972 197.456C280.972 196.88 281.057 196.315 281.228 195.76C281.398 195.205 281.676 194.715 282.06 194.288C282.465 193.861 282.924 193.509 283.436 193.232C283.948 192.955 284.481 192.741 285.036 192.592C285.59 192.421 286.156 192.315 286.732 192.272C287.308 192.208 287.884 192.176 288.46 192.176H291.724V190.896C291.724 190.405 291.628 189.925 291.436 189.456C291.244 188.965 290.945 188.571 290.54 188.272C290.156 187.952 289.718 187.739 289.228 187.632C288.737 187.525 288.246 187.472 287.756 187.472C287.308 187.472 286.87 187.504 286.444 187.568C286.017 187.632 285.601 187.76 285.196 187.952C284.812 188.144 284.481 188.421 284.204 188.784C283.926 189.147 283.788 189.541 283.788 189.968V190H281.164V189.936C281.164 189.424 281.249 188.923 281.42 188.432C281.59 187.941 281.836 187.504 282.156 187.12C282.497 186.736 282.892 186.416 283.34 186.16C283.788 185.883 284.246 185.669 284.716 185.52C285.206 185.349 285.708 185.243 286.22 185.2C286.732 185.136 287.244 185.104 287.756 185.104C288.31 185.104 288.865 185.147 289.42 185.232C289.974 185.296 290.508 185.435 291.02 185.648C291.532 185.861 292.001 186.139 292.428 186.48C292.876 186.821 293.249 187.237 293.548 187.728C293.846 188.197 294.049 188.709 294.156 189.264C294.284 189.797 294.347 190.341 294.347 190.896V199.632H296.172V202H291.724V199.248C291.489 199.717 291.201 200.155 290.86 200.56C290.518 200.965 290.113 201.296 289.644 201.552C289.196 201.808 288.705 201.989 288.172 202.096C287.66 202.203 287.148 202.256 286.635 202.256ZM287.628 199.888C287.99 199.888 288.353 199.867 288.716 199.824C289.078 199.76 289.42 199.653 289.74 199.504C290.06 199.333 290.348 199.131 290.604 198.896C290.881 198.64 291.094 198.352 291.244 198.032C291.414 197.712 291.532 197.381 291.596 197.04C291.681 196.677 291.724 196.315 291.724 195.952V194.512H288.46C288.097 194.512 287.745 194.533 287.404 194.576C287.062 194.597 286.721 194.64 286.38 194.704C286.06 194.768 285.729 194.864 285.388 194.992C285.068 195.099 284.769 195.248 284.492 195.44C284.214 195.632 283.99 195.888 283.82 196.208C283.67 196.507 283.596 196.837 283.596 197.2C283.596 197.648 283.724 198.075 283.98 198.48C284.257 198.864 284.588 199.163 284.972 199.376C285.377 199.589 285.804 199.728 286.252 199.792C286.721 199.856 287.18 199.888 287.628 199.888ZM299.487 202V199.632H302.463V180.816H299.487V178.48H305.087V199.632H308.063V202H299.487ZM318.764 202.256C318.209 202.256 317.654 202.181 317.1 202.032C316.545 201.883 316.044 201.648 315.596 201.328C315.148 200.987 314.764 200.581 314.444 200.112C314.124 199.643 313.868 199.141 313.676 198.608C313.505 198.075 313.388 197.531 313.324 196.976C313.26 196.4 313.228 195.835 313.228 195.28V187.696H311.404V185.36H315.852V195.28C315.852 195.664 315.873 196.048 315.916 196.432C315.98 196.816 316.076 197.189 316.204 197.552C316.353 197.893 316.545 198.224 316.78 198.544C317.014 198.843 317.292 199.099 317.612 199.312C317.932 199.525 318.273 199.675 318.635 199.76C319.02 199.845 319.404 199.888 319.788 199.888C320.172 199.888 320.545 199.845 320.908 199.76C321.292 199.675 321.644 199.525 321.964 199.312C322.284 199.099 322.561 198.843 322.796 198.544C323.03 198.224 323.212 197.893 323.34 197.552C323.489 197.189 323.585 196.816 323.628 196.432C323.692 196.048 323.724 195.664 323.724 195.28V187.696H321.9V185.36H326.347V199.632H328.172V202H323.724V198.96C323.51 199.451 323.244 199.909 322.924 200.336C322.604 200.763 322.22 201.125 321.772 201.424C321.345 201.723 320.865 201.936 320.332 202.064C319.82 202.192 319.297 202.256 318.764 202.256ZM343.359 202H340.351C339.903 202 339.455 201.968 339.007 201.904C338.58 201.819 338.164 201.68 337.759 201.488C337.375 201.296 337.023 201.04 336.703 200.72C336.383 200.4 336.127 200.048 335.935 199.664C335.743 199.259 335.604 198.843 335.519 198.416C335.455 197.968 335.423 197.52 335.423 197.072V187.696H331.391V185.36H335.423V178.48H338.079V185.36H343.359V187.696H338.079V197.072C338.079 197.392 338.111 197.723 338.175 198.064C338.26 198.384 338.399 198.672 338.591 198.928C338.804 199.163 339.071 199.344 339.391 199.472C339.711 199.579 340.031 199.632 340.351 199.632H343.359V202ZM358.469 193.68V178.48H361.093V193.68H358.469ZM359.781 202.256C359.483 202.256 359.184 202.213 358.885 202.128C358.587 202.043 358.331 201.893 358.117 201.68C357.904 201.445 357.744 201.189 357.637 200.912C357.552 200.613 357.509 200.304 357.509 199.984C357.509 199.685 357.552 199.397 357.637 199.12C357.744 198.821 357.904 198.565 358.117 198.352C358.331 198.117 358.587 197.957 358.885 197.872C359.184 197.787 359.483 197.744 359.781 197.744C360.08 197.744 360.379 197.787 360.677 197.872C360.976 197.957 361.232 198.117 361.445 198.352C361.659 198.565 361.808 198.821 361.893 199.12C361.979 199.397 362.021 199.685 362.021 199.984C362.021 200.304 361.979 200.613 361.893 200.912C361.808 201.189 361.659 201.445 361.445 201.68C361.232 201.893 360.976 202.043 360.677 202.128C360.379 202.213 360.08 202.256 359.781 202.256Z" fill="#4C4F69"/>
<rect x="384.5" y="165.5" width="100" height="49" rx="5.5" fill="#E7E9EF"/>
<rect x="384.5" y="165.5" width="100" height="49" rx="5.5" stroke="#DCE0E8"/>
<path d="M419.808 206L398.784 193.008V189.232L411.424 181.36L413.408 184.112L401.888 191.12L420.896 202.768L419.808 206ZM417.652 206.576L428.02 175.664H431.924L421.556 206.576H417.652ZM457.339 200.88L455.355 198.128L466.875 191.12L455.355 184.112L457.339 181.36L469.979 189.232V193.008L457.339 200.88Z" fill="#8839EF"/>
<path d="M443.239 208.88H435.687V205.648H437.159V188.592H435.687V185.36H440.967V188.112C441.159 187.664 441.415 187.248 441.735 186.864C442.055 186.459 442.418 186.128 442.823 185.872C443.228 185.595 443.676 185.403 444.167 185.296C444.658 185.168 445.148 185.104 445.639 185.104C446.194 185.104 446.738 185.179 447.271 185.328C447.826 185.477 448.316 185.723 448.743 186.064C449.191 186.405 449.564 186.821 449.863 187.312C450.162 187.781 450.396 188.283 450.567 188.816C450.759 189.328 450.887 189.861 450.951 190.416C451.015 190.971 451.047 191.525 451.047 192.08V195.28C451.047 195.835 451.015 196.389 450.951 196.944C450.887 197.499 450.759 198.043 450.567 198.576C450.396 199.088 450.162 199.589 449.863 200.08C449.564 200.549 449.191 200.955 448.743 201.296C448.316 201.637 447.826 201.883 447.271 202.032C446.738 202.181 446.194 202.256 445.639 202.256C445.148 202.256 444.658 202.192 444.167 202.064C443.676 201.957 443.228 201.776 442.823 201.52C442.418 201.243 442.055 200.912 441.735 200.528C441.415 200.123 441.159 199.696 440.967 199.248V205.648H443.239V208.88ZM444.103 199.024C444.572 199.024 445.02 198.939 445.447 198.768C445.895 198.576 446.258 198.299 446.535 197.936C446.812 197.552 446.994 197.136 447.079 196.688C447.186 196.219 447.239 195.749 447.239 195.28V192.08C447.239 191.611 447.186 191.152 447.079 190.704C446.994 190.235 446.812 189.819 446.535 189.456C446.258 189.072 445.895 188.795 445.447 188.624C445.02 188.432 444.572 188.336 444.103 188.336C443.634 188.336 443.175 188.432 442.727 188.624C442.3 188.795 441.948 189.072 441.671 189.456C441.394 189.819 441.202 190.235 441.095 190.704C441.01 191.152 440.967 191.611 440.967 192.08V195.28C440.967 195.749 441.01 196.219 441.095 196.688C441.202 197.136 441.394 197.552 441.671 197.936C441.948 198.299 442.3 198.576 442.727 198.768C443.175 198.939 443.634 199.024 444.103 199.024Z" fill="#E64554"/>
<path d="M393.792 108.336C392.896 108.336 392.224 107.632 392.416 106.656C393.344 102.032 394.608 93.488 394.96 87.648L389.024 88.064C388.272 88.112 387.616 87.504 387.584 86.72C387.568 85.968 388.144 85.312 388.896 85.28L395.12 84.912C395.248 84.288 395.648 83.808 396.64 83.904C398.496 84.048 401.28 84.208 402.736 84.368C403.488 84.48 404.24 84.912 404.256 85.728C404.288 86.48 403.712 87.104 402.944 87.152L397.856 87.504C397.552 92.64 396.288 101.808 395.344 106.784C395.168 107.776 394.592 108.336 393.792 108.336ZM411.844 108.368C409.732 108.368 407.364 106.8 407.364 102.688C407.364 96.72 411.668 91.568 416.452 91.568C418.324 91.568 420.18 92.256 420.9 93.408L420.948 93.168C421.172 91.888 421.668 91.152 422.596 91.232C423.54 91.296 423.86 92.032 423.652 93.376C423.188 96.448 422.612 100.848 422.148 104.688C422.82 104.96 423.22 105.76 423.22 106.576C423.22 107.648 422.452 108.384 421.412 108.384C420.084 108.384 419.396 107.232 419.396 105.664C419.396 104.752 419.508 103.376 419.7 101.824H419.3C417.492 105.856 414.596 108.368 411.844 108.368ZM410.164 102.304C410.164 104.176 410.788 105.696 412.372 105.696C414.628 105.696 417.956 101.872 419.876 96.304H419.796C418.868 96.304 418.244 95.504 418.068 94.432C417.636 94.272 417.156 94.16 416.58 94.16C412.996 94.16 410.164 98.32 410.164 102.304ZM433.784 114.816C431.384 114.816 429.4 113.888 428.152 112.64C427.56 112.064 427.416 111.312 427.976 110.592C428.52 109.936 429.336 110.016 430.088 110.608C431.144 111.472 432.328 112.16 433.72 112.16C435.896 112.16 437.864 110.4 438.84 106.544C439.176 105.2 439.528 103.344 439.832 101.408H439.352C437.48 105.152 434.744 106.816 432.28 106.816C430.216 106.816 427.784 105.216 427.784 101.36C427.784 96.176 431.432 91.568 436.456 91.568C437.976 91.568 439.784 92.144 440.776 93.12C440.904 91.824 441.256 91.232 442.232 91.232C443.176 91.232 443.608 91.904 443.528 93.344C443.432 96.368 442.552 103.024 441.704 106.752C440.6 111.44 438.152 114.816 433.784 114.816ZM430.584 100.96C430.584 102.736 431.176 104.256 432.776 104.256C434.68 104.256 437.56 101.776 439.672 96.544C438.824 96.4 438.264 95.6 438.264 94.448C437.736 94.24 437.144 94.112 436.52 94.112C433.016 94.112 430.584 97.536 430.584 100.96ZM471.439 108.496C470.415 108.496 470.031 107.664 470.031 106.576C470.031 104.432 470.143 102.272 470.335 100.176L468.399 100.4C467.663 100.48 466.991 99.904 466.911 99.136C466.847 98.384 467.407 97.712 468.159 97.616L470.639 97.328C470.847 95.648 471.103 94.048 471.391 92.624C472.527 86.992 474.671 83.136 479.039 83.136C482.767 83.136 484.271 86.08 484.271 88.208C484.271 89.936 483.535 91.056 482.367 91.056C481.327 91.056 480.687 90.192 480.687 89.264C480.687 88.496 481.007 87.68 481.727 87.248C481.343 86.208 480.447 85.632 479.231 85.632C476.463 85.632 474.911 88.672 474.143 92.688C473.887 94 473.647 95.456 473.439 97.008L480.527 96.176C481.295 96.08 481.983 96.656 482.047 97.424C482.127 98.192 481.567 98.864 480.799 98.96L473.119 99.856C472.895 102.064 472.767 104.368 472.767 106.608C472.767 107.712 472.431 108.496 471.439 108.496ZM494.835 108.4C490.995 108.4 488.323 105.936 488.051 102.096H488.035C487.027 102.256 486.403 101.808 486.355 101.04C486.291 100.304 486.723 99.744 487.699 99.6C487.843 99.584 488.003 99.552 488.179 99.52C488.883 95.088 491.971 91.184 496.867 91.184C500.339 91.184 502.419 93.2 502.419 96.32C502.419 98.4 501.635 99.248 499.459 99.856C497.811 100.336 493.827 101.12 490.899 101.632C491.091 104.16 492.339 105.84 494.963 105.84C496.723 105.84 498.291 105.264 499.571 104.288C500.227 103.808 500.739 103.536 501.395 104.144C502.019 104.704 501.939 105.44 501.331 106C500.019 107.216 497.635 108.4 494.835 108.4ZM491.075 99.056C493.651 98.624 496.707 98.064 498.227 97.68C499.539 97.36 499.827 96.736 499.827 96.048C499.827 94.752 498.995 93.728 496.947 93.728C493.827 93.728 491.715 96.176 491.075 99.056ZM510.103 108.512C508.999 108.24 508.647 107.072 509.031 105.776C510.039 102.352 511.303 96.848 511.319 94.288L510.967 93.904C510.295 94.24 509.383 94.672 508.647 94.832C507.847 94.992 507.047 95.024 506.775 94.048C506.503 93.104 507.095 92.48 508.039 92.096C509.174 91.6 510.679 91.168 511.767 91.168C513.239 91.168 513.959 92.32 513.959 93.68C513.959 95.536 513.303 98.208 512.295 101.024L512.679 101.12C515.031 95.792 518.183 91.184 521.031 91.184C522.087 91.184 522.694 91.872 522.967 92.832C523.335 94.272 523.415 96.832 523.415 98.272C523.415 100.304 523.047 101.088 522.263 101.232C521.271 101.44 520.695 100.768 520.439 99.568C520.151 98.128 520.183 95.952 520.535 94.288L520.103 94.08C517.671 96.448 514.295 101.632 512.535 106.576C512.055 107.92 511.191 108.784 510.103 108.512ZM541.386 109.12C540.042 109.12 539.45 107.648 539.45 105.664C539.45 103.184 540.058 98.624 540.986 94.96L540.49 94.768C538.89 97.6 537.498 101.792 536.426 103.808C535.834 104.96 535.274 105.344 534.682 105.344C533.546 105.344 533.338 103.984 533.338 102.864C533.338 101.232 533.786 97.648 534.202 95.136L533.818 94.944C532.346 98.08 530.666 102.864 529.626 106.224C529.13 107.76 528.49 108.592 527.53 108.592C526.09 108.592 526.282 106.72 526.57 105.216C527.226 101.792 527.77 98.032 527.834 94.24C527.354 93.904 527.114 93.248 527.114 92.416C527.114 91.28 527.882 90.56 528.794 90.56C529.738 90.56 530.362 91.344 530.362 92.8C530.362 94.384 529.994 97.968 529.45 100.096L529.93 100.24C530.586 98.032 531.898 94.656 532.682 93.2C533.402 91.904 534.17 91.2 535.082 91.2C536.074 91.2 536.49 92.016 536.49 93.216C536.49 94.656 536.122 97.952 535.738 99.712L536.138 99.936C536.698 98.176 537.77 95.296 538.954 93.264C539.706 91.984 540.634 91.2 541.69 91.2C542.826 91.2 543.402 92.112 543.402 93.536C543.402 96.224 541.946 100.72 541.834 105.584C542.634 105.808 543.082 106.544 543.082 107.376C543.082 108.544 542.218 109.12 541.386 109.12ZM550.75 108.368C548.638 108.368 546.27 106.8 546.27 102.688C546.27 96.72 550.574 91.568 555.358 91.568C557.23 91.568 559.086 92.256 559.806 93.408L559.854 93.168C560.078 91.888 560.574 91.152 561.502 91.232C562.446 91.296 562.766 92.032 562.558 93.376C562.094 96.448 561.518 100.848 561.054 104.688C561.726 104.96 562.126 105.76 562.126 106.576C562.126 107.648 561.358 108.384 560.318 108.384C558.99 108.384 558.302 107.232 558.302 105.664C558.302 104.752 558.414 103.376 558.606 101.824H558.206C556.398 105.856 553.502 108.368 550.75 108.368ZM549.07 102.304C549.07 104.176 549.694 105.696 551.278 105.696C553.534 105.696 556.862 101.872 558.782 96.304H558.702C557.774 96.304 557.15 95.504 556.974 94.432C556.542 94.272 556.062 94.16 555.486 94.16C551.902 94.16 549.07 98.32 549.07 102.304ZM579.602 109.392C578.018 109.392 577.522 107.68 577.522 105.264C577.522 102.624 578.05 98.528 579.01 94.528L578.53 94.4C575.97 97.632 573.234 102.224 571.762 105.088C570.674 107.168 569.81 108.432 568.594 108.432C567.074 108.432 567.122 106.432 567.698 104.56C568.562 101.792 569.474 98.48 569.666 94.8C569.17 94.368 568.85 93.584 568.85 92.608C568.85 91.248 569.762 90.512 570.754 90.512C571.762 90.512 572.498 91.344 572.498 92.992C572.498 95.12 572.05 97.84 571.154 100.656L571.538 100.784C573.33 97.456 575.298 94.72 576.93 92.816C577.89 91.712 578.914 91.04 579.938 91.04C580.93 91.04 581.682 91.648 581.682 93.168C581.682 96.112 580.274 100.88 580.114 105.664C580.962 105.92 581.394 106.72 581.394 107.552C581.394 108.688 580.61 109.392 579.602 109.392ZM593.494 108.496C590.79 108.496 589.478 106.688 589.478 103.792C589.478 102.064 589.974 99.056 590.598 95.936L588.07 96.192C587.238 96.272 586.598 95.68 586.534 94.896C586.454 94.144 587.11 93.488 587.878 93.424L591.206 93.088C591.814 90.288 592.454 87.728 592.838 86.256C593.158 85.072 593.766 84.384 594.79 84.608C595.526 84.752 596.054 85.376 595.686 86.736C595.382 87.84 594.79 90.16 594.198 92.784L599.366 92.256C600.262 92.16 600.902 92.704 600.998 93.456C601.078 94.24 600.406 94.944 599.478 95.04L593.558 95.632C592.885 98.768 592.342 101.856 592.342 103.456C592.342 104.704 592.678 105.76 593.862 105.76C595.622 105.76 597.254 103.344 598.502 101.472C599.11 100.56 599.686 100.256 600.454 100.608C601.27 100.992 601.302 101.92 600.902 102.736C599.702 105.152 596.854 108.496 593.494 108.496Z" fill="#40A02B"/>
<path d="M220.583 321.384C217.991 321.384 216.503 319.832 216.503 317.224C216.503 314.728 217.751 305.944 218.423 301.416L217.895 301.448C217.143 301.496 216.455 300.92 216.455 300.12C216.455 299.368 217.015 298.712 217.783 298.664L218.887 298.616C219.111 297.688 219.511 297.144 220.471 297.144C221.303 297.144 221.639 297.672 221.703 298.472L230.007 298.072C230.775 298.04 231.463 298.632 231.463 299.416C231.463 300.184 230.919 300.824 230.151 300.872L221.431 301.288C221.175 303.272 220.759 306.12 220.391 308.84L227.079 308.36C227.847 308.312 228.471 308.872 228.471 309.592C228.471 310.296 227.991 310.936 227.223 311L220.023 311.56C219.735 313.8 219.527 315.672 219.527 316.504C219.527 317.896 220.087 318.6 221.463 318.6C223.127 318.6 226.583 318.072 228.471 317.752C229.367 317.544 230.103 318.216 230.103 319.032C230.103 319.8 229.559 320.344 228.791 320.504C227.207 320.84 222.839 321.384 220.583 321.384ZM224.423 294.84C224.887 295.352 225.479 295.192 226.023 294.92C227.031 294.408 228.135 293.56 228.759 292.92C229.367 292.28 229.271 291.576 228.663 290.984C228.071 290.408 227.159 290.264 226.599 291.128C226.087 291.88 225.319 292.68 224.599 293.288C223.975 293.816 223.959 294.344 224.423 294.84ZM240.555 321.16C239.371 321.16 238.459 320.408 238.459 318.984C238.459 318.12 238.875 316.408 239.499 314.376C240.539 311.064 243.739 301.24 244.347 299.288L243.995 298.936C242.427 299.464 239.019 300.264 237.595 300.456C236.651 300.568 235.995 300.296 235.755 299.448C235.499 298.552 235.947 297.784 237.067 297.432C238.587 296.952 243.451 296.104 245.147 296.104C246.331 296.104 247.195 296.872 247.195 298.264C247.195 298.92 247.035 300.04 246.619 301.432C245.611 304.76 242.155 315.224 241.291 317.944L241.643 318.296C243.195 317.832 246.411 317.112 247.867 316.92C248.891 316.792 249.675 316.92 249.883 317.784C250.091 318.712 249.611 319.464 248.571 319.8C247.163 320.28 242.395 321.16 240.555 321.16ZM262.35 321.4C258.51 321.4 255.838 318.936 255.566 315.096H255.55C254.542 315.256 253.918 314.808 253.87 314.04C253.806 313.304 254.238 312.744 255.214 312.6C255.358 312.584 255.518 312.552 255.694 312.52C256.398 308.088 259.486 304.184 264.382 304.184C267.854 304.184 269.934 306.2 269.934 309.32C269.934 311.4 269.15 312.248 266.974 312.856C265.326 313.336 261.342 314.12 258.414 314.632C258.606 317.16 259.854 318.84 262.478 318.84C264.238 318.84 265.806 318.264 267.086 317.288C267.742 316.808 268.254 316.536 268.91 317.144C269.534 317.704 269.454 318.44 268.846 319C267.534 320.216 265.15 321.4 262.35 321.4ZM258.59 312.056C261.166 311.624 264.222 311.064 265.742 310.68C267.054 310.36 267.342 309.736 267.342 309.048C267.342 307.752 266.51 306.728 264.462 306.728C261.342 306.728 259.23 309.176 258.59 312.056ZM263.726 299.272C263.262 299.928 263.358 300.472 263.918 300.856C264.494 301.256 264.99 301 265.566 300.472C266.766 299.352 267.79 298.04 268.462 296.808C268.91 295.944 268.686 295.24 267.966 294.792C267.246 294.376 266.318 294.376 265.966 295.336C265.406 296.664 264.638 298.088 263.726 299.272ZM289.058 322.12C287.714 322.12 287.122 320.648 287.122 318.664C287.122 316.184 287.73 311.624 288.658 307.96L288.162 307.768C286.562 310.6 285.17 314.792 284.098 316.808C283.506 317.96 282.946 318.344 282.354 318.344C281.218 318.344 281.01 316.984 281.01 315.864C281.01 314.232 281.458 310.648 281.874 308.136L281.49 307.944C280.018 311.08 278.338 315.864 277.298 319.224C276.802 320.76 276.162 321.592 275.202 321.592C273.762 321.592 273.954 319.72 274.242 318.216C274.898 314.792 275.442 311.032 275.506 307.24C275.026 306.904 274.786 306.248 274.786 305.416C274.786 304.28 275.554 303.56 276.466 303.56C277.41 303.56 278.034 304.344 278.034 305.8C278.034 307.384 277.666 310.968 277.122 313.096L277.602 313.24C278.258 311.032 279.57 307.656 280.354 306.2C281.074 304.904 281.842 304.2 282.754 304.2C283.746 304.2 284.162 305.016 284.162 306.216C284.162 307.656 283.794 310.952 283.41 312.712L283.81 312.936C284.37 311.176 285.442 308.296 286.626 306.264C287.378 304.984 288.306 304.2 289.362 304.2C290.498 304.2 291.074 305.112 291.074 306.536C291.074 309.224 289.618 313.72 289.506 318.584C290.306 318.808 290.754 319.544 290.754 320.376C290.754 321.544 289.89 322.12 289.058 322.12ZM302.038 321.4C298.198 321.4 295.526 318.936 295.254 315.096H295.238C294.23 315.256 293.606 314.808 293.558 314.04C293.494 313.304 293.926 312.744 294.902 312.6C295.046 312.584 295.206 312.552 295.382 312.52C296.086 308.088 299.174 304.184 304.07 304.184C307.542 304.184 309.622 306.2 309.622 309.32C309.622 311.4 308.838 312.248 306.662 312.856C305.014 313.336 301.03 314.12 298.102 314.632C298.294 317.16 299.542 318.84 302.166 318.84C303.926 318.84 305.494 318.264 306.774 317.288C307.43 316.808 307.942 316.536 308.598 317.144C309.222 317.704 309.142 318.44 308.534 319C307.222 320.216 304.838 321.4 302.038 321.4ZM298.278 312.056C300.854 311.624 303.91 311.064 305.43 310.68C306.742 310.36 307.03 309.736 307.03 309.048C307.03 307.752 306.198 306.728 304.15 306.728C301.03 306.728 298.918 309.176 298.278 312.056ZM327.274 322.392C325.69 322.392 325.194 320.68 325.194 318.264C325.194 315.624 325.722 311.528 326.682 307.528L326.202 307.4C323.642 310.632 320.906 315.224 319.434 318.088C318.346 320.168 317.482 321.432 316.266 321.432C314.746 321.432 314.794 319.432 315.37 317.56C316.234 314.792 317.146 311.48 317.338 307.8C316.842 307.368 316.522 306.584 316.522 305.608C316.522 304.248 317.434 303.512 318.426 303.512C319.434 303.512 320.17 304.344 320.17 305.992C320.17 308.12 319.722 310.84 318.826 313.656L319.21 313.784C321.002 310.456 322.97 307.72 324.602 305.816C325.562 304.712 326.586 304.04 327.61 304.04C328.602 304.04 329.354 304.648 329.354 306.168C329.354 309.112 327.946 313.88 327.786 318.664C328.634 318.92 329.066 319.72 329.066 320.552C329.066 321.688 328.282 322.392 327.274 322.392ZM341.165 321.496C338.461 321.496 337.149 319.688 337.149 316.792C337.149 315.064 337.645 312.056 338.269 308.936L335.741 309.192C334.909 309.272 334.269 308.68 334.205 307.896C334.125 307.144 334.781 306.488 335.549 306.424L338.877 306.088C339.485 303.288 340.125 300.728 340.509 299.256C340.829 298.072 341.437 297.384 342.461 297.608C343.197 297.752 343.725 298.376 343.357 299.736C343.053 300.84 342.461 303.16 341.869 305.784L347.037 305.256C347.933 305.16 348.573 305.704 348.669 306.456C348.749 307.24 348.077 307.944 347.149 308.04L341.229 308.632C340.557 311.768 340.013 314.856 340.013 316.456C340.013 317.704 340.349 318.76 341.533 318.76C343.293 318.76 344.925 316.344 346.173 314.472C346.781 313.56 347.357 313.256 348.125 313.608C348.941 313.992 348.973 314.92 348.573 315.736C347.373 318.152 344.525 321.496 341.165 321.496Z" fill="#40A02B"/>
<path d="M18.792 118.336C17.896 118.336 17.224 117.632 17.416 116.656C18.344 112.032 19.608 103.488 19.96 97.648L14.024 98.064C13.272 98.112 12.616 97.504 12.584 96.72C12.568 95.968 13.144 95.312 13.896 95.28L20.12 94.912C20.248 94.288 20.648 93.808 21.64 93.904C23.496 94.048 26.28 94.208 27.736 94.368C28.488 94.48 29.24 94.912 29.256 95.728C29.288 96.48 28.712 97.104 27.944 97.152L22.856 97.504C22.552 102.64 21.288 111.808 20.344 116.784C20.168 117.776 19.592 118.336 18.792 118.336ZM36.8438 118.368C34.7318 118.368 32.3638 116.8 32.3638 112.688C32.3638 106.72 36.6678 101.568 41.4518 101.568C43.3238 101.568 45.1798 102.256 45.8998 103.408L45.9478 103.168C46.1718 101.888 46.6678 101.152 47.5958 101.232C48.5398 101.296 48.8598 102.032 48.6518 103.376C48.1878 106.448 47.6118 110.848 47.1478 114.688C47.8198 114.96 48.2198 115.76 48.2198 116.576C48.2198 117.648 47.4518 118.384 46.4118 118.384C45.0838 118.384 44.3958 117.232 44.3958 115.664C44.3958 114.752 44.5078 113.376 44.6998 111.824H44.2998C42.4918 115.856 39.5958 118.368 36.8438 118.368ZM35.1638 112.304C35.1638 114.176 35.7878 115.696 37.3718 115.696C39.6278 115.696 42.9558 111.872 44.8758 106.304H44.7958C43.8678 106.304 43.2438 105.504 43.0678 104.432C42.6358 104.272 42.1558 104.16 41.5798 104.16C37.9958 104.16 35.1638 108.32 35.1638 112.304ZM58.7835 124.816C56.3835 124.816 54.3995 123.888 53.1515 122.64C52.5595 122.064 52.4155 121.312 52.9755 120.592C53.5195 119.936 54.3355 120.016 55.0875 120.608C56.1435 121.472 57.3275 122.16 58.7195 122.16C60.8955 122.16 62.8635 120.4 63.8395 116.544C64.1755 115.2 64.5275 113.344 64.8315 111.408H64.3515C62.4795 115.152 59.7435 116.816 57.2795 116.816C55.2155 116.816 52.7835 115.216 52.7835 111.36C52.7835 106.176 56.4315 101.568 61.4555 101.568C62.9755 101.568 64.7835 102.144 65.7755 103.12C65.9035 101.824 66.2555 101.232 67.2315 101.232C68.1755 101.232 68.6075 101.904 68.5275 103.344C68.4315 106.368 67.5515 113.024 66.7035 116.752C65.5995 121.44 63.1515 124.816 58.7835 124.816ZM55.5835 110.96C55.5835 112.736 56.1755 114.256 57.7755 114.256C59.6795 114.256 62.5595 111.776 64.6715 106.544C63.8235 106.4 63.2635 105.6 63.2635 104.448C62.7355 104.24 62.1435 104.112 61.5195 104.112C58.0155 104.112 55.5835 107.536 55.5835 110.96ZM99.703 118.368C95.815 118.368 93.015 115.568 93.015 111.168C93.015 105.104 97.223 101.04 101.751 101.04C102.967 101.04 104.279 101.392 105.191 102.08C105.895 102.64 106.135 103.424 105.735 104.08C106.967 105.216 107.575 106.992 107.575 109.12C107.575 114.24 104.407 118.368 99.703 118.368ZM95.847 110.848C95.847 113.472 97.271 115.792 99.863 115.792C102.727 115.792 104.823 112.432 104.823 109.296C104.823 107.76 104.311 106.416 103.303 105.568C102.535 104.832 102.327 104.336 102.615 103.808L102.695 103.68C102.487 103.632 102.247 103.6 101.991 103.6C98.359 103.6 95.847 107.36 95.847 110.848ZM125.739 118.48C124.651 118.48 123.835 117.6 123.835 115.936C123.835 114.112 124.043 112.256 124.379 110.368H123.851C121.003 115.696 118.795 118.368 116.043 118.368C113.947 118.368 112.235 116.752 112.235 113.168C112.235 110.672 112.859 107.056 113.323 104.72C113.003 104.336 112.795 103.712 112.795 103.056C112.795 101.856 113.563 101.184 114.587 101.184C115.659 101.184 116.347 101.952 116.347 103.456C116.347 105.52 115.019 109.456 115.019 112.736C115.019 114.576 115.547 115.728 116.555 115.728C119.163 115.728 122.891 107.968 124.891 102.816C125.323 101.664 125.979 100.976 126.907 101.072C127.867 101.168 128.187 102.144 127.979 103.52C127.451 107.024 126.731 111.616 126.507 114.656C127.163 114.96 127.563 115.696 127.563 116.544C127.563 117.664 126.747 118.48 125.739 118.48ZM138.671 118.4C137.151 118.4 136.415 117.12 135.967 114.512C135.567 112.272 134.991 108.192 134.575 105.216C133.823 104.896 133.423 104.096 133.423 103.312C133.423 102.176 134.223 101.536 135.151 101.536C136.335 101.536 137.039 102.336 137.231 103.808C137.647 106.64 138.142 111.408 138.639 115.072L139.151 115.216C141.199 111.568 143.583 106.592 145.055 101.808C145.407 100.656 146.239 100.256 147.055 100.528C147.871 100.8 148.159 101.6 147.743 102.912C146.495 106.688 143.647 112.704 141.711 115.744C140.687 117.424 140.047 118.4 138.671 118.4ZM154.946 118.512C153.842 118.24 153.49 117.072 153.874 115.776C154.882 112.352 156.146 106.848 156.162 104.288L155.81 103.904C155.138 104.24 154.226 104.672 153.49 104.832C152.69 104.992 151.89 105.024 151.618 104.048C151.346 103.104 151.938 102.48 152.882 102.096C154.018 101.6 155.522 101.168 156.61 101.168C158.082 101.168 158.802 102.32 158.802 103.68C158.802 105.536 158.146 108.208 157.138 111.024L157.522 111.12C159.874 105.792 163.026 101.184 165.874 101.184C166.93 101.184 167.538 101.872 167.81 102.832C168.178 104.272 168.258 106.832 168.258 108.272C168.258 110.304 167.89 111.088 167.106 111.232C166.114 111.44 165.538 110.768 165.282 109.568C164.994 108.128 165.026 105.952 165.378 104.288L164.946 104.08C162.514 106.448 159.138 111.632 157.378 116.576C156.898 117.92 156.034 118.784 154.946 118.512ZM175.75 118.368C173.638 118.368 171.27 116.8 171.27 112.688C171.27 106.72 175.574 101.568 180.358 101.568C182.23 101.568 184.086 102.256 184.806 103.408L184.854 103.168C185.078 101.888 185.574 101.152 186.502 101.232C187.446 101.296 187.766 102.032 187.558 103.376C187.094 106.448 186.518 110.848 186.054 114.688C186.726 114.96 187.126 115.76 187.126 116.576C187.126 117.648 186.358 118.384 185.318 118.384C183.99 118.384 183.302 117.232 183.302 115.664C183.302 114.752 183.414 113.376 183.606 111.824H183.206C181.398 115.856 178.502 118.368 175.75 118.368ZM174.07 112.304C174.07 114.176 174.694 115.696 176.278 115.696C178.534 115.696 181.862 111.872 183.782 106.304H183.702C182.774 106.304 182.15 105.504 181.974 104.432C181.542 104.272 181.062 104.16 180.486 104.16C176.902 104.16 174.07 108.32 174.07 112.304ZM204.602 119.392C203.018 119.392 202.522 117.68 202.522 115.264C202.522 112.624 203.05 108.528 204.01 104.528L203.53 104.4C200.97 107.632 198.234 112.224 196.762 115.088C195.674 117.168 194.81 118.432 193.594 118.432C192.074 118.432 192.122 116.432 192.698 114.56C193.562 111.792 194.474 108.48 194.666 104.8C194.17 104.368 193.85 103.584 193.85 102.608C193.85 101.248 194.762 100.512 195.754 100.512C196.762 100.512 197.498 101.344 197.498 102.992C197.498 105.12 197.05 107.84 196.154 110.656L196.538 110.784C198.33 107.456 200.298 104.72 201.93 102.816C202.89 101.712 203.914 101.04 204.938 101.04C205.93 101.04 206.682 101.648 206.682 103.168C206.682 106.112 205.274 110.88 205.114 115.664C205.962 115.92 206.394 116.72 206.394 117.552C206.394 118.688 205.61 119.392 204.602 119.392ZM218.494 118.496C215.79 118.496 214.478 116.688 214.478 113.792C214.478 112.064 214.974 109.056 215.598 105.936L213.07 106.192C212.238 106.272 211.598 105.68 211.534 104.896C211.454 104.144 212.11 103.488 212.878 103.424L216.206 103.088C216.814 100.288 217.454 97.728 217.838 96.256C218.158 95.072 218.766 94.384 219.79 94.608C220.526 94.752 221.054 95.376 220.686 96.736C220.382 97.84 219.79 100.16 219.198 102.784L224.366 102.256C225.262 102.16 225.902 102.704 225.998 103.456C226.078 104.24 225.406 104.944 224.478 105.04L218.558 105.632C217.885 108.768 217.342 111.856 217.342 113.456C217.342 114.704 217.678 115.76 218.862 115.76C220.622 115.76 222.254 113.344 223.502 111.472C224.11 110.56 224.686 110.256 225.454 110.608C226.27 110.992 226.302 111.92 225.902 112.736C224.702 115.152 221.854 118.496 218.494 118.496Z" fill="#40A02B"/>
<path d="M211.312 53.368C207.104 53.368 204.48 50.152 204.48 44.504C204.48 38.152 207.904 29.256 214.4 29.256C219.168 29.256 219.92 34.024 218.928 37.208C218.56 38.36 217.808 38.984 216.944 38.696C216.128 38.424 215.968 37.592 216.192 36.68C216.72 34.264 216.416 32.072 214.24 32.072C209.92 32.072 207.52 40.024 207.52 44.264C207.52 47.944 208.88 50.504 211.408 50.504C213.344 50.504 215.232 49.016 216.4 46.28C216.896 45.192 217.488 44.696 218.352 45.048C219.328 45.448 219.312 46.52 218.928 47.48C217.392 51.256 214.72 53.368 211.312 53.368ZM231.172 53.368C227.284 53.368 224.484 50.568 224.484 46.168C224.484 40.104 228.692 36.04 233.22 36.04C234.436 36.04 235.748 36.392 236.66 37.08C237.364 37.64 237.604 38.424 237.204 39.08C238.436 40.216 239.044 41.992 239.044 44.12C239.044 49.24 235.876 53.368 231.172 53.368ZM227.316 45.848C227.316 48.472 228.74 50.792 231.332 50.792C234.196 50.792 236.292 47.432 236.292 44.296C236.292 42.76 235.78 41.416 234.772 40.568C234.004 39.832 233.796 39.336 234.084 38.808L234.164 38.68C233.956 38.632 233.716 38.6 233.46 38.6C229.828 38.6 227.316 42.36 227.316 45.848ZM256.696 54.392C255.112 54.392 254.616 52.68 254.616 50.264C254.616 47.624 255.144 43.528 256.104 39.528L255.624 39.4C253.064 42.632 250.328 47.224 248.856 50.088C247.768 52.168 246.904 53.432 245.688 53.432C244.168 53.432 244.216 51.432 244.792 49.56C245.656 46.792 246.568 43.48 246.76 39.8C246.264 39.368 245.944 38.584 245.944 37.608C245.944 36.248 246.856 35.512 247.848 35.512C248.856 35.512 249.592 36.344 249.592 37.992C249.592 40.12 249.144 42.84 248.248 45.656L248.632 45.784C250.424 42.456 252.392 39.72 254.024 37.816C254.984 36.712 256.008 36.04 257.032 36.04C258.024 36.04 258.776 36.648 258.776 38.168C258.776 41.112 257.368 45.88 257.208 50.664C258.056 50.92 258.488 51.72 258.488 52.552C258.488 53.688 257.704 54.392 256.696 54.392ZM270.587 53.496C267.883 53.496 266.571 51.688 266.571 48.792C266.571 47.064 267.067 44.056 267.691 40.936L265.163 41.192C264.331 41.272 263.691 40.68 263.627 39.896C263.547 39.144 264.203 38.488 264.971 38.424L268.299 38.088C268.907 35.288 269.547 32.728 269.931 31.256C270.251 30.072 270.859 29.384 271.883 29.608C272.619 29.752 273.147 30.376 272.779 31.736C272.475 32.84 271.883 35.16 271.291 37.784L276.459 37.256C277.355 37.16 277.995 37.704 278.091 38.456C278.171 39.24 277.499 39.944 276.571 40.04L270.651 40.632C269.979 43.768 269.435 46.856 269.435 48.456C269.435 49.704 269.771 50.76 270.955 50.76C272.715 50.76 274.347 48.344 275.595 46.472C276.203 45.56 276.779 45.256 277.547 45.608C278.363 45.992 278.395 46.92 277.995 47.736C276.795 50.152 273.947 53.496 270.587 53.496ZM290.991 53.4C287.151 53.4 284.479 50.936 284.207 47.096H284.191C283.183 47.256 282.559 46.808 282.511 46.04C282.447 45.304 282.879 44.744 283.855 44.6C283.999 44.584 284.159 44.552 284.335 44.52C285.039 40.088 288.127 36.184 293.023 36.184C296.495 36.184 298.575 38.2 298.575 41.32C298.575 43.4 297.791 44.248 295.615 44.856C293.967 45.336 289.983 46.12 287.055 46.632C287.247 49.16 288.495 50.84 291.119 50.84C292.879 50.84 294.447 50.264 295.727 49.288C296.383 48.808 296.895 48.536 297.551 49.144C298.175 49.704 298.095 50.44 297.487 51C296.175 52.216 293.791 53.4 290.991 53.4ZM287.231 44.056C289.807 43.624 292.863 43.064 294.383 42.68C295.695 42.36 295.983 41.736 295.983 41.048C295.983 39.752 295.151 38.728 293.103 38.728C289.983 38.728 287.871 41.176 287.231 44.056ZM316.227 54.392C314.643 54.392 314.147 52.68 314.147 50.264C314.147 47.624 314.675 43.528 315.635 39.528L315.155 39.4C312.595 42.632 309.859 47.224 308.387 50.088C307.299 52.168 306.435 53.432 305.219 53.432C303.699 53.432 303.747 51.432 304.323 49.56C305.187 46.792 306.099 43.48 306.291 39.8C305.795 39.368 305.475 38.584 305.475 37.608C305.475 36.248 306.387 35.512 307.379 35.512C308.387 35.512 309.123 36.344 309.123 37.992C309.123 40.12 308.675 42.84 307.779 45.656L308.163 45.784C309.955 42.456 311.923 39.72 313.555 37.816C314.515 36.712 315.539 36.04 316.563 36.04C317.555 36.04 318.307 36.648 318.307 38.168C318.307 41.112 316.899 45.88 316.739 50.664C317.587 50.92 318.019 51.72 318.019 52.552C318.019 53.688 317.235 54.392 316.227 54.392ZM336.583 53.48C335.495 53.48 334.679 52.6 334.679 50.936C334.679 49.112 334.887 47.256 335.223 45.368H334.695C331.847 50.696 329.639 53.368 326.887 53.368C324.791 53.368 323.079 51.752 323.079 48.168C323.079 45.672 323.703 42.056 324.167 39.72C323.847 39.336 323.639 38.712 323.639 38.056C323.639 36.856 324.407 36.184 325.431 36.184C326.503 36.184 327.191 36.952 327.191 38.456C327.191 40.52 325.863 44.456 325.863 47.736C325.863 49.576 326.391 50.728 327.399 50.728C330.007 50.728 333.735 42.968 335.735 37.816C336.167 36.664 336.823 35.976 337.751 36.072C338.711 36.168 339.031 37.144 338.823 38.52C338.295 42.024 337.575 46.616 337.351 49.656C338.007 49.96 338.407 50.696 338.407 51.544C338.407 52.664 337.59 53.48 336.583 53.48Z" fill="#40A02B"/>
<path d="M158.207 190.707C158.598 190.317 158.598 189.683 158.207 189.293L151.843 182.929C151.453 182.538 150.819 182.538 150.429 182.929C150.038 183.319 150.038 183.953 150.429 184.343L156.086 190L150.429 195.657C150.038 196.047 150.038 196.681 150.429 197.071C150.819 197.462 151.453 197.462 151.843 197.071L158.207 190.707ZM121.5 131.5C121.5 130.948 121.052 130.5 120.5 130.5C119.948 130.5 119.5 130.948 119.5 131.5H121.5ZM157.5 189H144.5V191H157.5V189ZM121.5 166V131.5H119.5V166H121.5ZM144.5 189C131.797 189 121.5 178.703 121.5 166H119.5C119.5 179.807 130.693 191 144.5 191V189Z" fill="#9CA0B0"/>
<path d="M312.793 167.207C313.183 167.598 313.817 167.598 314.207 167.207L320.571 160.843C320.962 160.453 320.962 159.819 320.571 159.429C320.181 159.038 319.547 159.038 319.157 159.429L313.5 165.086L307.843 159.429C307.453 159.038 306.819 159.038 306.429 159.429C306.038 159.819 306.038 160.453 306.429 160.843L312.793 167.207ZM272.5 66.5C272.5 65.9477 272.052 65.5 271.5 65.5C270.948 65.5 270.5 65.9477 270.5 66.5H272.5ZM314.5 166.5V137.5H312.5V166.5H314.5ZM272.5 95.5V66.5H270.5V95.5H272.5ZM292.5 115.5C281.454 115.5 272.5 106.546 272.5 95.5H270.5C270.5 107.65 280.35 117.5 292.5 117.5V115.5ZM314.5 137.5C314.5 125.35 304.65 115.5 292.5 115.5V117.5C303.546 117.5 312.5 126.454 312.5 137.5H314.5Z" fill="#9CA0B0"/>
<path d="M433.793 167.207C434.183 167.598 434.817 167.598 435.207 167.207L441.571 160.843C441.962 160.453 441.962 159.819 441.571 159.429C441.181 159.038 440.547 159.038 440.157 159.429L434.5 165.086L428.843 159.429C428.453 159.038 427.819 159.038 427.429 159.429C427.038 159.819 427.038 160.453 427.429 160.843L433.793 167.207ZM496.5 121.5C496.5 120.948 496.052 120.5 495.5 120.5C494.948 120.5 494.5 120.948 494.5 121.5H496.5ZM495.5 121.5H496.5H495.5ZM434.5 166.5H435.5H434.5ZM457 145H473V143H457V145ZM473 145C485.979 145 496.5 134.479 496.5 121.5H494.5C494.5 133.374 484.874 143 473 143V145ZM435.5 166.5C435.5 154.626 445.126 145 457 145V143C444.021 143 433.5 153.521 433.5 166.5H435.5Z" fill="#9CA0B0"/>
<path d="M323.707 233.793C323.317 233.402 322.683 233.402 322.293 233.793L315.929 240.157C315.538 240.547 315.538 241.181 315.929 241.571C316.319 241.962 316.953 241.962 317.343 241.571L323 235.914L328.657 241.571C329.047 241.962 329.681 241.962 330.071 241.571C330.462 241.181 330.462 240.547 330.071 240.157L323.707 233.793ZM281.5 289.5C281.5 290.052 281.948 290.5 282.5 290.5C283.052 290.5 283.5 290.052 283.5 289.5H281.5ZM322 234.5V241.75H324V234.5H322ZM281.5 282.25V289.5H283.5V282.25H281.5ZM302.75 261C291.014 261 281.5 270.514 281.5 282.25H283.5C283.5 271.619 292.119 263 302.75 263V261ZM322 241.75C322 252.381 313.381 261 302.75 261V263C314.486 263 324 253.486 324 241.75H322Z" fill="#9CA0B0"/>
</svg>
